<svg xmlns="http://www.w3.org/2000/svg" viewBox="0 0 24 24" fill="#7952B3">
  <path d="M6.565 14.75c0 .414.336.75.75.75h.75c.414 0 .75-.336.75-.75v-5.5c0-.414-.336-.75-.75-.75h-.75c-.414 0-.75.336-.75.75v5.5zm2.25-5.5c0-.414.336-.75.75-.75h.75c.414 0 .75.336.75.75v5.5c0 .414-.336.75-.75.75h-.75c-.414 0-.75-.336-.75-.75v-5.5zm2.25 0c0-.414.336-.75.75-.75h.75c.414 0 .75.336.75.75v5.5c0 .414-.336.75-.75.75h-.75c-.414 0-.75-.336-.75-.75v-5.5z" fill="white"/>
  <path d="M12 2C6.48 2 2 6.48 2 12s4.48 10 10 10 10-4.48 10-10S17.52 2 12 2zm0 18c-4.41 0-8-3.59-8-8s3.59-8 8-8 8 3.59 8 8-3.59 8-8 8z" fill="white"/>
</svg>
